<svg xmlns="http://www.w3.org/2000/svg" xmlns:xlink="http://www.w3.org/1999/xlink" version="1.1" id="Layer_1" x="0px" y="0px" viewBox="0 0 512.002 512.002" style="enable-background:new 0 0 512.002 512.002;" xml:space="preserve" width="512" height="512" class=""><g><path style="fill:#3F697F" d="M256.021,511.98c-228.821,0-340.837-277.189-181-436.984c6.663-6.662,17.468-6.662,24.131,0.002  l163.938,163.937h231.846c9.425,0,17.065,7.641,17.065,17.065C512.001,397.481,397.513,511.98,256.021,511.98z" data-original="#FFDB2D" class="" data-old_color="#FFDB2D"></path><path style="fill:#3F697F" d="M494.935,238.936H263.091l-7.068-7.068V511.98c141.492,0,255.979-114.499,255.979-255.98  C512.001,246.576,504.361,238.936,494.935,238.936z" data-original="#FF9900" class="" data-old_color="#FF9900"></path><path style="fill:#AC825A;" d="M494.935,273.066H256.021c-15.151,0-22.807-18.392-12.066-29.132L412.89,74.999  c6.663-6.663,17.468-6.663,24.133-0.002c48.351,48.338,74.978,112.621,74.978,181.005  C512.001,265.425,504.361,273.066,494.935,273.066z" data-original="#AC825A"></path><path style="fill:#3F697F" d="M437.023,74.997c-6.665-6.661-17.468-6.661-24.133,0.002L256.021,231.867v41.199h238.914  c9.425,0,17.065-7.641,17.065-17.065C512.001,187.618,485.373,123.335,437.023,74.997z" data-original="#FF4F19" class="" data-old_color="#406A80"></path><path style="fill:#3F697F" d="M256.021,273.066c-4.368,0-8.735-1.667-12.066-4.999L75.02,99.132  c-6.663-6.663-6.665-17.468-0.001-24.133c48.338-48.351,112.62-74.978,181.004-74.978s132.666,26.628,181.004,74.978  c6.662,6.665,6.662,17.468-0.001,24.133L268.09,268.067C264.756,271.399,260.389,273.066,256.021,273.066z" data-original="#B9F7F9" class="active-path" data-old_color="#B9F7F9"></path><path style="fill:#4AB7A0" d="M437.026,74.999C388.688,26.649,324.406,0.021,256.022,0.021v273.045  c4.368,0,8.735-1.667,12.066-4.999L437.024,99.132C443.687,92.469,443.688,81.665,437.026,74.999z" data-original="#00D8E0" class="" data-old_color="#4AB8A1"></path></g> </svg>